<svg width="100" height="100" viewBox="0 0 100 100" fill="none" xmlns="http://www.w3.org/2000/svg">
<path d="M16.5267 60.9466L24.9212 43.6641C24.9212 43.6641 17.576 47.0091 16.002 50.9116C14.428 54.8141 14.9271 58.4038 16.002 60.9466" stroke="#499A18" stroke-linecap="round" stroke-linejoin="round"/>
<path d="M15.9965 60.9925C15.9965 60.9925 41.7102 31.3991 33.3157 44.2216C24.9212 57.0441 34.1707 46.6314 29.4973 54.0678C24.824 61.5041 15.9965 60.9925 15.9965 60.9925Z" stroke="#499A18" stroke-linejoin="round"/>
<path d="M40.9264 49.8414C42.2811 49.8414 43.2837 50.0654 43.9344 50.5134C44.5957 50.9507 44.9264 51.7294 44.9264 52.8494C44.9264 53.9694 44.6011 54.86 43.9504 55.5214C43.2997 56.172 42.2491 56.4974 40.7984 56.4974H39.4544L39.4064 59.9694L40.6544 60.0814C40.6544 60.38 40.5637 60.7 40.3824 61.0414H36.7824L36.7344 60.4974C37.1824 60.3267 37.6411 60.1987 38.1104 60.1134C38.0464 55.9534 37.9931 52.86 37.9504 50.8334C37.6624 50.78 37.1931 50.652 36.5424 50.4494L36.6224 49.8414H40.9264ZM40.6384 55.4574C41.5557 55.4467 42.2544 55.2174 42.7344 54.7694C43.2144 54.3107 43.4544 53.708 43.4544 52.9614C43.4544 52.2147 43.2197 51.6974 42.7504 51.4094C42.2811 51.1107 41.5291 50.9614 40.4944 50.9614C40.3024 50.9614 39.9771 50.9667 39.5184 50.9774C39.5184 50.988 39.5024 52.4867 39.4704 55.4734L40.6384 55.4574ZM47.9855 49.1534C48.3162 49.1534 48.5508 49.164 48.6895 49.1854C48.6895 49.5587 48.6202 49.9854 48.4815 50.4654C48.3855 56.7587 48.3375 59.9214 48.3375 59.9534L49.6815 60.0814C49.6815 60.38 49.5908 60.7 49.4095 61.0414H45.7295L45.6815 60.4814C46.1722 60.3107 46.6522 60.1827 47.1215 60.0974L46.9615 50.4174C46.3748 50.3854 45.9055 50.3214 45.5535 50.2254L45.6175 49.3934C46.1615 49.2334 46.9508 49.1534 47.9855 49.1534ZM56.9763 55.8094L56.8963 59.9374C57.3549 59.9694 57.8136 60.044 58.2723 60.1614L58.2403 60.7214C58.0696 60.8067 57.7603 60.9027 57.3123 61.0094C56.8749 61.1054 56.4429 61.1534 56.0163 61.1534C55.8243 60.7694 55.7176 60.4014 55.6963 60.0494C54.4803 60.8494 53.6269 61.2494 53.1363 61.2494C52.3789 61.2494 51.7709 61.0467 51.3123 60.6414C50.8536 60.236 50.6243 59.6707 50.6243 58.9454C50.6243 57.2707 51.6483 56.4067 53.6963 56.3534C54.8909 56.3214 55.4936 56.3054 55.5043 56.3054L55.4883 55.7614C55.4669 55.0254 55.3283 54.4974 55.0723 54.1774C54.8163 53.8467 54.3576 53.6814 53.6963 53.6814C53.4189 53.6814 53.1203 53.7454 52.8003 53.8734L52.4163 55.4734C52.3629 55.484 52.2723 55.4894 52.1443 55.4894L51.4883 55.4414C51.3176 54.9827 51.2269 54.348 51.2163 53.5374C51.4189 53.4307 51.8829 53.2707 52.6083 53.0574C53.3336 52.8334 53.7976 52.7214 54.0003 52.7214C55.0883 52.7214 55.8563 52.9614 56.3043 53.4414C56.7523 53.9214 56.9763 54.7107 56.9763 55.8094ZM53.4883 60.1614C53.7976 60.1614 54.5123 59.8147 55.6323 59.1214L55.5523 57.1214C54.8269 57.1854 54.2189 57.244 53.7283 57.2974C53.2376 57.3507 52.8429 57.4947 52.5443 57.7294C52.2456 57.9534 52.0963 58.3107 52.0963 58.8014C52.0963 59.708 52.5603 60.1614 53.4883 60.1614ZM64.1613 52.7214C65.1853 52.7214 65.9266 52.9774 66.3853 53.4894C66.8439 53.9907 67.0733 54.7587 67.0733 55.7934C67.0733 56.092 67.0306 57.4787 66.9453 59.9534L68.2893 60.0814C68.2893 60.38 68.1986 60.7 68.0173 61.0414H64.3373L64.2893 60.4814C64.7799 60.3107 65.2599 60.1827 65.7293 60.0974C65.6653 57.3027 65.6066 55.7507 65.5533 55.4414C65.5106 55.1214 65.4359 54.844 65.3293 54.6094C65.2226 54.3747 65.0626 54.2094 64.8493 54.1134C64.6359 54.0174 64.3533 53.9694 64.0013 53.9694C63.2973 53.9694 62.6146 54.14 61.9533 54.4814C61.8893 56.9134 61.8466 58.7374 61.8253 59.9534L63.1693 60.0814C63.1693 60.38 63.0786 60.7 62.8973 61.0414H59.2173L59.1693 60.4814C59.6599 60.3107 60.1399 60.1827 60.6093 60.0974C60.5453 57.388 60.4919 55.3827 60.4493 54.0814C59.8626 54.0494 59.3933 53.9854 59.0413 53.8894L59.1053 53.0574C59.6813 52.8974 60.5186 52.8174 61.6173 52.8174C61.7453 53.0094 61.8413 53.2867 61.9053 53.6494C62.3639 53.404 62.8226 53.1907 63.2813 53.0094C63.7506 52.8174 64.0439 52.7214 64.1613 52.7214ZM70.2126 60.0494L70.0846 54.0174H68.8526L68.8046 53.4574C68.9113 53.3827 69.2206 53.244 69.7326 53.0414L71.0446 50.9934C71.258 51.0147 71.4233 51.068 71.5406 51.1534L71.5246 52.9134C72.3246 52.9134 72.9806 52.9667 73.4926 53.0734C73.4926 53.3614 73.402 53.676 73.2206 54.0174H71.4926C71.4713 55.2974 71.45 57.2387 71.4286 59.8414C72.026 59.8734 72.6233 59.98 73.2206 60.1614L73.2046 60.7214C73.0553 60.8174 72.6713 60.9294 72.0526 61.0574C71.4446 61.1854 70.9433 61.2494 70.5486 61.2494C70.4953 61.164 70.426 60.9827 70.3406 60.7054C70.2553 60.4174 70.2126 60.1987 70.2126 60.0494ZM75.9191 60.0174C76.2925 60.1774 76.7458 60.2574 77.2791 60.2574C77.8231 60.2574 78.2498 60.156 78.5591 59.9534C78.8685 59.7507 79.0231 59.4734 79.0231 59.1214C79.0231 58.7694 78.8791 58.476 78.5911 58.2414C78.3031 58.0067 77.9511 57.7987 77.5351 57.6174C77.1191 57.436 76.7031 57.244 76.2871 57.0414C75.8711 56.8387 75.5191 56.572 75.2311 56.2414C74.9431 55.9107 74.7991 55.5267 74.7991 55.0894C74.7991 54.3534 75.0445 53.7774 75.5351 53.3614C76.0258 52.9347 76.7031 52.7214 77.5671 52.7214C78.4418 52.7214 79.2631 52.9187 80.0311 53.3134C80.0418 53.42 80.0471 53.708 80.0471 54.1774C80.0471 54.636 79.9991 55.0307 79.9031 55.3614C79.6471 55.4467 79.3431 55.4894 78.9911 55.4894L78.4631 53.8574C78.2285 53.74 77.9085 53.6814 77.5031 53.6814C77.1085 53.6814 76.7938 53.788 76.5591 54.0014C76.3245 54.204 76.2071 54.4654 76.2071 54.7854C76.2071 55.0947 76.3511 55.3667 76.6391 55.6014C76.9378 55.836 77.2951 56.0494 77.7111 56.2414C78.1271 56.4227 78.5431 56.62 78.9591 56.8334C79.3751 57.036 79.7271 57.308 80.0151 57.6494C80.3138 57.98 80.4631 58.364 80.4631 58.8014C80.4631 59.5694 80.1645 60.172 79.5671 60.6094C78.9805 61.036 78.2551 61.2494 77.3911 61.2494C76.9218 61.2494 76.4205 61.1747 75.8871 61.0254C75.3538 60.8654 74.9058 60.6627 74.5431 60.4174C74.5431 59.7027 74.6071 59.068 74.7351 58.5134C74.9805 58.4707 75.3111 58.4494 75.7271 58.4494L75.9191 60.0174Z" fill="black"/>
</svg>
